<svg width="38" height="38" viewBox="0 0 38 38" fill="none" xmlns="http://www.w3.org/2000/svg">
<path d="M18.8956 31.7518C11.6761 31.7518 5.83801 26.0086 5.83801 18.9063C5.83801 11.804 11.6761 6.06079 18.8956 6.06079C26.1152 6.06079 31.9532 11.804 31.9532 18.9063C31.9532 26.0086 26.1152 31.7518 18.8956 31.7518ZM18.8956 6.84994C12.1217 6.84994 6.64019 12.2424 6.64019 18.9063C6.64019 25.5702 12.1217 30.9627 18.8956 30.9627C25.6695 30.9627 31.1511 25.5702 31.1511 18.9063C31.1511 12.2424 25.6695 6.84994 18.8956 6.84994Z" fill="#A80000"/>
<path d="M21.1239 37.4951H16.712C16.4891 37.4951 16.3109 37.3197 16.3109 37.1005V34.3385C15.2859 34.1631 14.3054 33.9001 13.325 33.5494L11.9435 35.9168C11.8543 36.0922 11.587 36.1798 11.4087 36.0483L7.57609 33.8562C7.48696 33.8124 7.44239 33.7247 7.39783 33.637C7.35326 33.5494 7.39783 33.4178 7.44239 33.3301L8.82391 30.9627C8.02174 30.3051 7.3087 29.6036 6.64022 28.8145L4.2337 30.2174C4.14457 30.2613 4.05544 30.2613 3.92174 30.2613C3.83261 30.2174 3.74348 30.1736 3.69891 30.0859L1.47065 26.3155C1.38152 26.1402 1.42609 25.8771 1.60435 25.7894L4.01087 24.4304C3.65435 23.4658 3.38696 22.5013 3.2087 21.493H0.401087C0.178261 21.493 0 21.3176 0 21.0984V16.7581C0 16.5389 0.178261 16.3636 0.401087 16.3636H3.16413C3.34239 15.3552 3.60978 14.3907 3.9663 13.4262L1.55978 12.0671C1.47065 12.0233 1.38152 11.9356 1.38152 11.8479C1.33696 11.7602 1.38152 11.6287 1.42609 11.541L3.65435 7.77065C3.74348 7.59529 4.01087 7.50761 4.18913 7.63913L6.59565 8.99821C7.26413 8.20907 7.97718 7.50761 8.77935 6.84999L7.39783 4.48255C7.35326 4.39487 7.3087 4.26335 7.35326 4.17566C7.39783 4.08798 7.44239 4.0003 7.53152 3.95646L11.3641 1.76439C11.5424 1.67671 11.8098 1.72055 11.8989 1.89591L13.2804 4.26335C14.2609 3.91262 15.2413 3.64957 16.2663 3.4742V0.712199C16.2663 0.492992 16.4446 0.317627 16.6674 0.317627H21.0793C21.3022 0.317627 21.4804 0.492992 21.4804 0.712199V3.43036C22.5054 3.60573 23.5304 3.86877 24.5109 4.21951L25.8924 1.85207C25.937 1.76439 26.0261 1.72055 26.1152 1.67671C26.2043 1.63287 26.338 1.67671 26.4272 1.72055L30.2598 3.91262C30.438 4.0003 30.5272 4.26335 30.3935 4.43871L29.012 6.80614C29.8141 7.46376 30.5272 8.16523 31.1957 8.95437L33.6022 7.59529C33.6913 7.55145 33.7804 7.5076 33.9141 7.55145C34.0033 7.59529 34.0924 7.63913 34.137 7.72681L36.3652 11.4972C36.4098 11.5848 36.4098 11.6725 36.4098 11.8041C36.3652 11.8917 36.3207 11.9794 36.2315 12.0233L33.825 13.3823C34.1815 14.3469 34.4489 15.3114 34.6272 16.3197H37.3902C37.613 16.3197 37.7913 16.4951 37.7913 16.7143V21.0546C37.7913 21.2738 37.613 21.4491 37.3902 21.4491H34.5826C34.4044 22.4575 34.137 23.422 33.7804 24.3865L36.187 25.7456C36.3652 25.8333 36.4544 26.0963 36.3207 26.2717L34.0924 30.042C34.0478 30.1297 33.9587 30.1736 33.8696 30.2174C33.7804 30.2613 33.6467 30.2174 33.5576 30.1736L31.1957 28.8583C30.5272 29.6475 29.8141 30.3489 29.012 31.0066L30.3935 33.374C30.4826 33.5494 30.438 33.8124 30.2598 33.9001L26.4272 36.0922C26.2489 36.1798 25.9815 36.136 25.8924 35.9606L24.5109 33.5932C23.5304 33.9439 22.55 34.207 21.525 34.3823V37.1443C21.525 37.3197 21.3467 37.4951 21.1239 37.4951ZM17.0685 36.7059H20.7228V34.0316C20.7228 33.8562 20.8565 33.6809 21.0793 33.637C22.2826 33.4617 23.4413 33.1548 24.5554 32.7164C24.7337 32.6287 24.9565 32.7164 25.0457 32.8917L26.4272 35.2153L29.5913 33.4178L28.2098 31.0942C28.1207 30.9189 28.1652 30.6997 28.2989 30.612C29.2348 29.8667 30.0815 29.0337 30.8391 28.113C30.9728 27.9815 31.1957 27.9377 31.3294 28.0253L33.6913 29.3844L35.5185 26.2717L33.1565 24.9126C32.9783 24.8249 32.9337 24.6057 32.9783 24.4304C33.4239 23.3343 33.7359 22.1945 33.9141 21.0107C33.9587 20.8354 34.0924 20.66 34.3152 20.66H36.9891V17.065H34.2707C34.0924 17.065 33.9141 16.9335 33.8696 16.7143C33.6913 15.5306 33.3794 14.3907 32.9337 13.2947C32.8446 13.1193 32.9337 12.9001 33.112 12.8124L35.4739 11.4533L33.6467 8.34059L31.2848 9.69967C31.1065 9.78735 30.8837 9.74351 30.7946 9.61199C30.037 8.69132 29.1902 7.85834 28.2544 7.11303C28.1207 6.98151 28.0761 6.7623 28.1652 6.63078L29.5467 4.30719L26.3826 2.50969L25.0011 4.83328C24.912 5.00865 24.6891 5.05249 24.5109 5.00865C23.3967 4.57024 22.238 4.26335 21.0348 4.08798C20.8565 4.04414 20.6783 3.91262 20.6783 3.69341V1.10677H17.0239V3.78109C17.0239 3.95646 16.8902 4.13182 16.6674 4.17566C15.4641 4.35103 14.3054 4.65792 13.1913 5.09633C13.013 5.18401 12.7902 5.09633 12.7011 4.92097L11.3196 2.59738L8.15544 4.39487L9.53696 6.71846C9.62609 6.89383 9.58152 7.11303 9.44783 7.20072C8.51196 7.94602 7.66522 8.779 6.90761 9.69967C6.77391 9.8312 6.55109 9.87504 6.41739 9.78735L4.05544 8.42827L2.22826 11.541L4.59022 12.9001C4.76848 12.9878 4.81304 13.207 4.76848 13.3823C4.32283 14.4784 4.01087 15.6183 3.83261 16.802C3.78804 16.9773 3.65435 17.1527 3.43152 17.1527H0.802174V20.7477H3.52065C3.69891 20.7477 3.87717 20.8792 3.92174 21.0984C4.1 22.2821 4.41196 23.422 4.85761 24.518C4.94674 24.6934 4.85761 24.9126 4.67935 25.0003L2.31739 26.3594L4.14457 29.4721L6.50652 28.113C6.68478 28.0253 6.90761 28.0692 6.99674 28.2007C7.75435 29.1214 8.60109 29.9544 9.53696 30.6997C9.67065 30.8312 9.71522 31.0504 9.62609 31.1819L8.24457 33.5055L11.4087 35.303L12.7902 32.9794C12.8793 32.8041 13.1022 32.7164 13.2804 32.8041C14.3946 33.2425 15.5533 33.5494 16.7565 33.7247C16.9348 33.7686 17.113 33.9001 17.113 34.1193V36.7059H17.0685Z" fill="#A80000"/>
<path d="M17.5587 22.6767H13.5478C12.9239 21.8437 12.5228 20.8354 12.3891 19.827H17.5587V16.7143H12.7011C13.5032 14.6099 15.3304 13.0316 17.5587 12.5494V9.43665C12.2108 10.1819 8.51193 15.0045 9.26954 20.2216C9.58149 22.326 10.5619 24.2989 12.1217 25.7895H17.5587V22.6767Z" fill="#A80000"/>
<path d="M18.8956 9.30505H18.8065V28.5514H21.9706V25.7894H25.6696C29.5467 22.1067 29.6359 16.0566 25.8924 12.2424C24.0652 10.3572 21.525 9.30505 18.8956 9.30505ZM24.2435 22.6767H21.9706V13.1631C24.1543 14.303 25.4913 16.495 25.4913 18.9063C25.4913 20.2654 25.0456 21.5806 24.2435 22.6767Z" fill="#A80000"/>
</svg>
