<?xml version="1.0" encoding="utf-8"?>
<!-- Generator: Adobe Illustrator 27.6.1, SVG Export Plug-In . SVG Version: 6.00 Build 0)  -->
<svg version="1.1" id="圖層_1" xmlns="http://www.w3.org/2000/svg" xmlns:xlink="http://www.w3.org/1999/xlink" x="0px" y="0px"
	 viewBox="0 0 24 24" style="enable-background:new 0 0 24 24;" xml:space="preserve">
<g>
	<g>
		<path d="M16,23.1H8c-2.8,0-5.1-2.3-5.1-5.1V6c0-2.8,2.3-5.1,5.1-5.1h8c2.8,0,5.1,2.3,5.1,5.1v12C21.1,20.8,18.8,23.1,16,23.1z
			 M8,3.1C6.4,3.1,5.1,4.4,5.1,6v12c0,1.6,1.3,2.9,2.9,2.9h8c1.6,0,2.9-1.3,2.9-2.9V6c0-1.6-1.3-2.9-2.9-2.9H8z"/>
	</g>
	<g>
		<path d="M16,8.1H8C7.4,8.1,6.9,7.6,6.9,7S7.4,5.9,8,5.9h8c0.6,0,1.1,0.5,1.1,1.1S16.6,8.1,16,8.1z"/>
	</g>
	<g>
		<path d="M16,13.1H8c-0.6,0-1.1-0.5-1.1-1.1s0.5-1.1,1.1-1.1h8c0.6,0,1.1,0.5,1.1,1.1S16.6,13.1,16,13.1z"/>
	</g>
	<g>
		<path d="M12,18.1H8c-0.6,0-1.1-0.5-1.1-1.1s0.5-1.1,1.1-1.1h4c0.6,0,1.1,0.5,1.1,1.1S12.6,18.1,12,18.1z"/>
	</g>
</g>
</svg>
