<?xml version="1.0" encoding="utf-8"?>
<!-- Generator: Adobe Illustrator 27.6.1, SVG Export Plug-In . SVG Version: 6.00 Build 0)  -->
<svg version="1.1" id="圖層_1" xmlns="http://www.w3.org/2000/svg" xmlns:xlink="http://www.w3.org/1999/xlink" x="0px" y="0px"
	 viewBox="0 0 24 24" style="enable-background:new 0 0 24 24;" xml:space="preserve">
<g>
	<g>
		<path d="M13.2,15.9c-1.3,0-2.6-0.5-3.6-1.5c-0.5-0.5-0.5-1.2,0-1.7s1.2-0.5,1.7,0c1,1,2.8,1,3.8,0L19,8.8c1-1,1-2.8,0-3.8
			s-2.8-1-3.8,0l-2,2c-0.5,0.5-1.2,0.5-1.7,0s-0.5-1.2,0-1.7l2-2c1-1,2.2-1.5,3.6-1.5s2.6,0.5,3.6,1.5c2,2,2,5.2,0,7.2l-3.9,3.9
			C15.8,15.4,14.5,15.9,13.2,15.9z"/>
	</g>
	<g>
		<path d="M6.9,22.2c-1.3,0-2.6-0.5-3.6-1.5c-2-2-2-5.2,0-7.2l3.9-3.9c2-2,5.2-2,7.2,0c0.5,0.5,0.5,1.2,0,1.7s-1.2,0.5-1.7,0
			c-1-1.1-2.8-1-3.8,0L5,15.2c-1,1-1,2.8,0,3.8c1,1,2.8,1,3.8,0l2-2c0.5-0.5,1.2-0.5,1.7,0s0.5,1.2,0,1.7l-2,2
			C9.5,21.7,8.2,22.2,6.9,22.2z"/>
	</g>
</g>
</svg>
