<?xml version="1.0" encoding="utf-8"?>
<!-- Generator: Adobe Illustrator 27.6.1, SVG Export Plug-In . SVG Version: 6.00 Build 0)  -->
<svg version="1.1" id="home" xmlns="http://www.w3.org/2000/svg" xmlns:xlink="http://www.w3.org/1999/xlink" x="0px" y="0px"
	 viewBox="0 0 24 24" style="enable-background:new 0 0 24 24;" xml:space="preserve">
<path d="M21.1,7.2l-8.5-5.8c-0.4-0.3-0.9-0.3-1.3,0L2.9,7.2c-1,0.7-1.6,1.9-1.6,3.1V19c0,2.1,1.7,3.7,3.7,3.7h14
	c2.1,0,3.7-1.7,3.7-3.7v-8.7C22.8,9.1,22.1,7.9,21.1,7.2z M12,11.3c-2.6,0-4.7,2.1-4.7,4.7v4.5H5c-0.8,0-1.5-0.7-1.5-1.5v-8.7
	c0-0.5,0.2-1,0.7-1.2L12,3.7l7.9,5.4c0.4,0.3,0.7,0.7,0.7,1.2V19c0,0.8-0.7,1.5-1.5,1.5h-2.4V16C16.7,13.4,14.6,11.3,12,11.3z
	 M9.6,16c0-0.6,0.3-1.3,0.7-1.7c0.5-0.5,1.1-0.7,1.7-0.7c0,0,0,0,0,0c0.6,0,1.3,0.3,1.7,0.7c0.5,0.5,0.7,1.1,0.7,1.7v4.5H9.6V16z"/>
</svg>
