<svg width="206" height="42" viewBox="0 0 206 42" fill="none" xmlns="http://www.w3.org/2000/svg">
<g clip-path="url(#clip0_51_178)">
<path d="M19.6456 33.714C12.4261 33.714 6.58801 27.9708 6.58801 20.8685C6.58801 13.7662 12.4261 8.02295 19.6456 8.02295C26.8652 8.02295 32.7032 13.7662 32.7032 20.8685C32.7032 27.9708 26.8652 33.714 19.6456 33.714ZM19.6456 8.81209C12.8717 8.81209 7.39019 14.2046 7.39019 20.8685C7.39019 27.5323 12.8717 32.9248 19.6456 32.9248C26.4195 32.9248 31.9011 27.5323 31.9011 20.8685C31.9011 14.2046 26.4195 8.81209 19.6456 8.81209Z" fill="#A80000"/>
<path d="M21.8739 39.4572H17.462C17.2391 39.4572 17.0609 39.2818 17.0609 39.0626V36.3006C16.0359 36.1252 15.0554 35.8622 14.075 35.5115L12.6935 37.8789C12.6043 38.0543 12.337 38.1419 12.1587 38.0104L8.32609 35.8183C8.23696 35.7745 8.19239 35.6868 8.14783 35.5991C8.10326 35.5115 8.14783 35.3799 8.19239 35.2922L9.57391 32.9248C8.77174 32.2672 8.0587 31.5657 7.39022 30.7766L4.9837 32.1795C4.89457 32.2234 4.80544 32.2234 4.67174 32.2234C4.58261 32.1795 4.49348 32.1357 4.44891 32.048L2.22065 28.2776C2.13152 28.1023 2.17609 27.8392 2.35435 27.7515L4.76087 26.3925C4.40435 25.4279 4.13696 24.4634 3.9587 23.4551H1.15109C0.928261 23.4551 0.75 23.2797 0.75 23.0605V18.7202C0.75 18.501 0.928261 18.3256 1.15109 18.3256H3.91413C4.09239 17.3173 4.35978 16.3528 4.7163 15.3883L2.30978 14.0292C2.22065 13.9854 2.13152 13.8977 2.13152 13.81C2.08696 13.7223 2.13152 13.5908 2.17609 13.5031L4.40435 9.73275C4.49348 9.55738 4.76087 9.4697 4.93913 9.60123L7.34565 10.9603C8.01413 10.1712 8.72718 9.4697 9.52935 8.81208L8.14783 6.44465C8.10326 6.35697 8.0587 6.22544 8.10326 6.13776C8.14783 6.05008 8.19239 5.9624 8.28152 5.91855L12.1141 3.72649C12.2924 3.63881 12.5598 3.68265 12.6489 3.85801L14.0304 6.22544C15.0109 5.87471 15.9913 5.61167 17.0163 5.4363V2.6743C17.0163 2.45509 17.1946 2.27972 17.4174 2.27972H21.8293C22.0522 2.27972 22.2304 2.45509 22.2304 2.6743V5.39246C23.2554 5.56782 24.2804 5.83087 25.2609 6.1816L26.6424 3.81417C26.687 3.72649 26.7761 3.68265 26.8652 3.63881C26.9543 3.59496 27.088 3.63881 27.1772 3.68265L31.0098 5.87471C31.188 5.9624 31.2772 6.22544 31.1435 6.40081L29.762 8.76824C30.5641 9.42586 31.2772 10.1273 31.9457 10.9165L34.3522 9.55738C34.4413 9.51354 34.5304 9.4697 34.6641 9.51354C34.7533 9.55738 34.8424 9.60123 34.887 9.68891L37.1152 13.4593C37.1598 13.5469 37.1598 13.6346 37.1598 13.7662C37.1152 13.8538 37.0707 13.9415 36.9815 13.9854L34.575 15.3444C34.9315 16.3089 35.1989 17.2735 35.3772 18.2818H38.1402C38.363 18.2818 38.5413 18.4572 38.5413 18.6764V23.0167C38.5413 23.2359 38.363 23.4112 38.1402 23.4112H35.3326C35.1544 24.4196 34.887 25.3841 34.5304 26.3486L36.937 27.7077C37.1152 27.7954 37.2043 28.0584 37.0707 28.2338L34.8424 32.0041C34.7978 32.0918 34.7087 32.1357 34.6196 32.1795C34.5304 32.2234 34.3967 32.1795 34.3076 32.1357L31.9457 30.8204C31.2772 31.6096 30.5641 32.311 29.762 32.9687L31.1435 35.3361C31.2326 35.5115 31.188 35.7745 31.0098 35.8622L27.1772 38.0543C26.9989 38.1419 26.7315 38.0981 26.6424 37.9227L25.2609 35.5553C24.2804 35.906 23.3 36.1691 22.275 36.3444V39.1064C22.275 39.2818 22.0967 39.4572 21.8739 39.4572ZM17.8185 38.668H21.4728V35.9937C21.4728 35.8183 21.6065 35.643 21.8293 35.5991C23.0326 35.4238 24.1913 35.1169 25.3054 34.6785C25.4837 34.5908 25.7065 34.6785 25.7957 34.8538L27.1772 37.1774L30.3413 35.3799L28.9598 33.0563C28.8707 32.881 28.9152 32.6618 29.0489 32.5741C29.9848 31.8288 30.8315 30.9958 31.5891 30.0751C31.7228 29.9436 31.9457 29.8998 32.0794 29.9874L34.4413 31.3465L36.2685 28.2338L33.9065 26.8747C33.7283 26.787 33.6837 26.5678 33.7283 26.3925C34.1739 25.2964 34.4859 24.1565 34.6641 22.9728C34.7087 22.7975 34.8424 22.6221 35.0652 22.6221H37.7391V19.0271H35.0207C34.8424 19.0271 34.6641 18.8956 34.6196 18.6764C34.4413 17.4927 34.1294 16.3528 33.6837 15.2568C33.5946 15.0814 33.6837 14.8622 33.862 14.7745L36.2239 13.4154L34.3967 10.3027L32.0348 11.6618C31.8565 11.7495 31.6337 11.7056 31.5446 11.5741C30.787 10.6534 29.9402 9.82043 29.0044 9.07513C28.8707 8.94361 28.8261 8.7244 28.9152 8.59288L30.2967 6.26929L27.1326 4.47179L25.7511 6.79538C25.662 6.97075 25.4391 7.01459 25.2609 6.97075C24.1467 6.53233 22.988 6.22544 21.7848 6.05008C21.6065 6.00624 21.4283 5.87471 21.4283 5.65551V3.06887H17.7739V5.74319C17.7739 5.91855 17.6402 6.09392 17.4174 6.13776C16.2141 6.31313 15.0554 6.62002 13.9413 7.05843C13.763 7.14611 13.5402 7.05843 13.4511 6.88306L12.0696 4.55947L8.90544 6.35697L10.287 8.68056C10.3761 8.85592 10.3315 9.07513 10.1978 9.16281C9.26196 9.90812 8.41522 10.7411 7.65761 11.6618C7.52391 11.7933 7.30109 11.8371 7.16739 11.7495L4.80544 10.3904L2.97826 13.5031L5.34022 14.8622C5.51848 14.9499 5.56304 15.1691 5.51848 15.3444C5.07283 16.4405 4.76087 17.5803 4.58261 18.7641C4.53804 18.9394 4.40435 19.1148 4.18152 19.1148H1.55217V22.7098H4.27065C4.44891 22.7098 4.62717 22.8413 4.67174 23.0605C4.85 24.2442 5.16196 25.3841 5.60761 26.4801C5.69674 26.6555 5.60761 26.8747 5.42935 26.9624L3.06739 28.3215L4.89457 31.4342L7.25652 30.0751C7.43478 29.9874 7.65761 30.0313 7.74674 30.1628C8.50435 31.0835 9.35109 31.9165 10.287 32.6618C10.4207 32.7933 10.4652 33.0125 10.3761 33.144L8.99457 35.4676L12.1587 37.2651L13.5402 34.9415C13.6293 34.7661 13.8522 34.6785 14.0304 34.7662C15.1446 35.2046 16.3033 35.5115 17.5065 35.6868C17.6848 35.7307 17.863 35.8622 17.863 36.0814V38.668H17.8185Z" fill="#A80000"/>
<path d="M18.3087 24.6388H14.2978C13.6739 23.8058 13.2728 22.7975 13.1391 21.7891H18.3087V18.6764H13.4511C14.2532 16.572 16.0804 14.9937 18.3087 14.5115V11.3987C12.9608 12.144 9.26193 16.9666 10.0195 22.1837C10.3315 24.2881 11.3119 26.261 12.8717 27.7516H18.3087V24.6388Z" fill="#A80000"/>
<path d="M19.6456 11.2672H19.5565V30.5136H22.7206V27.7516H26.4196C30.2967 24.0689 30.3859 18.0188 26.6424 14.2046C24.8152 12.3194 22.275 11.2672 19.6456 11.2672ZM24.9935 24.6388H22.7206V15.1252C24.9043 16.2651 26.2413 18.4572 26.2413 20.8685C26.2413 22.2275 25.7956 23.5428 24.9935 24.6388Z" fill="#A80000"/>
<path d="M65.5924 5.91857C65.0576 5.78704 64.5229 6.92692 64.5229 6.92692C63.275 7.18997 61.9826 7.36533 60.7348 7.40917C60.2446 7.40917 58.9968 7.40917 57.4816 7.40917C57.5707 6.66387 57.6152 5.96241 57.7044 5.34863C58.4174 0.657608 55.8326 0.131512 55.8326 0.131512C55.8326 0.131512 54.5848 -0.745315 54.8076 1.49059C54.8522 2.10437 54.8968 4.38412 54.8968 7.36533L49.1479 7.27765C49.1479 7.27765 48.1229 6.13777 47.2316 5.91857C46.3402 5.69936 45.0479 6.2693 45.9837 9.20667C46.9196 12.144 47.6326 18.1503 49.0587 19.7286C49.4152 20.167 50.5294 18.5449 50.5294 18.5449L54.8522 18.501C54.8076 23.7182 54.7631 28.1023 54.7631 28.1023C54.7631 28.1023 54.5402 29.2422 55.7881 28.9791C56.6348 28.7599 57.2142 27.1378 57.2142 25.428C57.2142 24.6827 57.125 21.8768 57.125 18.4572L61.4924 18.4133C61.4924 18.4133 61.4924 18.9394 62.2946 18.9394C63.0968 18.9394 63.5424 17.3173 64.2109 16.0898C64.8794 14.8622 65.6815 11.0918 66.8848 9.5574C68.0881 8.02295 66.1272 6.09393 65.5924 5.91857ZM50.3957 17.405C50.0837 16.7474 49.8609 16.0459 49.6381 15.3445C49.4152 13.4154 49.4152 11.4864 49.6381 9.5574C51.3761 9.82045 53.1142 9.90813 54.8522 9.90813C54.8522 12.1879 54.8522 14.643 54.8076 17.0104C52.4457 17.2296 50.3957 17.405 50.3957 17.405ZM61.9381 16.5282C61.3142 16.5282 59.2642 16.6597 57.0805 16.8351C57.0805 14.5553 57.125 12.1002 57.2587 9.86429C60.6457 9.77661 63.7207 9.5574 63.7207 9.5574C63.8544 11.7056 61.9381 16.5282 61.9381 16.5282Z" fill="black"/>
<path d="M99.5511 14.8183C97.0554 15.6075 96.075 15.1691 96.075 15.1691C96.075 15.1691 96.3869 10.4342 97.5011 9.03128C97.5011 9.03128 99.7739 8.46135 99.0609 6.88306C98.7489 6.00623 97.813 5.56782 96.9217 5.87471C96.6098 6.00623 96.2978 6.1816 96.1195 6.48849C96.1195 6.48849 91.2619 7.01458 90.2369 6.9269C90.2369 6.9269 90.7717 3.72648 90.5043 2.98118C90.2369 2.23588 87.7413 0.613747 87.4739 1.31521C87.2065 2.01667 87.3402 7.10226 87.3402 7.10226C85.513 7.14611 83.7304 7.14611 81.9032 7.01458C81.9032 7.01458 79.4522 6.31312 80.0761 8.76824C80.7 11.2233 82.438 16.0021 82.438 16.0021C82.438 16.0021 76.9565 15.8267 76.0206 16.0021C75.0848 16.1774 75.2185 19.1586 77.5804 19.1148C79.9424 19.0709 86.1369 18.1064 86.4935 18.238C86.85 18.3695 83.9978 24.8142 78.7391 25.5595C78.7391 25.5595 78.4272 26.0856 79.4076 26.0856C80.388 26.0856 86.4489 25.5595 89.3011 17.9749C89.3011 17.9749 97.5011 17.4927 99.8185 17.8872C102.136 18.2818 103.339 15.6952 102.448 14.5553C102.403 14.5553 102.047 14.0292 99.5511 14.8183ZM87.2065 16.1336L84.5772 15.9144C84.5772 15.9144 83.1065 11.1795 82.9282 9.55738C82.8837 9.03128 87.1619 9.03128 87.1619 9.03128V16.1336H87.2065ZM93.713 15.8705H89.7913V9.03128C89.7913 9.03128 94.2032 8.28598 94.4261 9.03128C94.6489 9.77659 93.713 15.9144 93.713 15.8705Z" fill="black"/>
<path d="M90.3707 21.833C90.3707 21.833 94.6044 25.8664 95.9859 27.8393C97.3674 29.8121 99.462 27.2693 98.3478 25.3403C97.2337 23.4113 94.3815 20.9123 90.3707 21.833Z" fill="black"/>
<path d="M123.527 3.50731C123.393 3.02506 116.263 5.6117 114.614 5.91859C113.233 6.18163 113.901 7.58456 114.614 8.72443C115.327 9.82046 115.416 18.2818 115.416 18.2818C114.837 18.6326 114.525 19.2902 114.614 19.9478C114.748 21.7892 116.664 21.6138 116.664 21.6138C124.017 17.9311 122.903 15.2568 122.903 15.2568C119.962 17.2735 118.179 17.4489 118.179 17.4489C117.957 14.1608 118.268 13.3278 118.268 13.3278C124.24 12.2756 123.126 8.94364 123.126 8.94364C123.126 8.94364 118.224 11.0919 117.645 10.5658C117.065 10.0397 117.511 7.71608 117.511 7.71608C125.087 6.48852 123.527 3.50731 123.527 3.50731Z" fill="black"/>
<path d="M134.891 3.15656C134.401 3.15656 128.652 5.04173 126.825 4.82253C126.825 4.82253 125.042 4.86637 124.909 5.48015C124.775 6.09392 124.909 28.2776 124.909 28.2776C124.909 28.2776 125.31 29.0668 126.602 27.8831C127.895 26.6994 127.583 23.5866 127.583 23.5866C127.583 23.5866 127.048 6.88307 127.627 6.57618C128.206 6.26929 131.995 6.31313 132.574 6.62002C133.153 6.92691 131.905 17.5365 130.613 18.4572C130.613 18.4572 129.187 18.6325 128.741 18.3695C128.741 18.3695 129.231 20.8246 131.192 21.263C133.153 21.7014 136.629 6.75154 136.585 5.12942C136.54 3.50729 135.381 3.15656 134.891 3.15656Z" fill="black"/>
<path d="M153.564 8.81209V10.4781C152.717 10.7411 151.826 10.8726 150.935 10.8726C149.865 10.7849 149.91 11.7933 150.133 13.5908C150.355 15.6075 150.222 16.1774 150.801 16.5282C151.38 16.8789 151.96 15.739 151.96 14.4238C151.96 13.6785 151.559 12.977 151.737 12.4948C151.826 12.1879 152.361 11.9248 152.896 11.881C153.341 11.8371 153.564 11.9248 153.698 12.144C154.099 12.7578 153.43 14.3361 153.609 15.3006C153.832 16.572 154.01 16.8351 154.767 16.572C155.525 16.309 155.168 11.5302 155.168 11.5302C155.168 11.5302 156.907 10.5657 157.308 10.8726C157.709 11.1795 157.486 13.3277 157.04 14.2484C157.04 14.5115 157.263 14.6868 157.53 14.6868C157.976 14.6868 159.759 11.4864 159.714 10.1273C159.67 8.76824 158.912 8.68056 157.753 8.85593C156.595 9.03129 155.837 9.73275 155.258 9.9958L155.168 8.37367C155.168 8.37367 157.798 7.32148 158.867 7.36532C159.937 7.40916 160.561 6.57618 158.912 5.87472C158.912 5.87472 158.689 5.65551 157.798 6.31313C156.907 6.97075 155.124 7.10227 155.124 7.10227L155.079 5.83087C156.104 5.4363 157.174 5.17325 158.243 4.99789C158.243 4.99789 158.867 4.38411 157.709 3.9457C157.263 3.72649 156.684 3.90186 156.461 4.34027C156.416 4.42795 156.372 4.51564 156.372 4.60332C156.015 4.77868 155.614 4.86637 155.213 4.86637C155.213 4.86637 154.99 2.54278 155.436 1.62211C155.882 0.701439 153.43 0.39455 153.475 0.964487C153.52 1.53442 153.876 4.73484 153.876 4.73484C153.876 4.73484 152.584 5.12941 152.049 4.73484C152.049 4.73484 152.138 2.49893 149.91 2.63046C149.91 2.63046 149.687 2.93735 149.91 4.73484C150.044 5.74319 150.043 6.79538 149.776 7.80373C149.776 7.80373 147.994 8.89977 146.523 8.76824C145.676 8.68056 145.721 11.7495 147.102 11.4864C148.617 11.2234 149.954 9.95196 150.846 9.55739C151.692 9.16282 152.628 8.94361 153.564 8.81209ZM152.138 6.31313C152.673 6.40081 153.208 6.35697 153.698 6.26929V7.75989C153.698 7.75989 151.96 8.06678 151.247 7.75989C150.534 7.453 151.603 6.97075 152.138 6.31313Z" fill="black"/>
<path d="M160.873 12.4948C160.917 12.977 162.032 13.547 162.299 12.8455C162.566 12.144 162.967 7.36532 162.7 6.26929C162.433 5.17326 160.917 5.2171 160.917 5.2171C160.917 5.2171 160.873 6.35697 160.917 8.15447C160.962 9.95196 160.828 12.0563 160.873 12.4948Z" fill="black"/>
<path d="M165.508 16.0898C166.666 16.3528 166.577 14.4238 166.533 13.1524C166.488 11.881 167.335 4.16493 166.845 2.58664C166.666 2.0167 165.374 1.57829 164.928 1.92902C164.75 2.10438 164.616 2.32359 164.572 2.58664C164.393 3.55115 164.616 5.21712 164.616 5.87474C164.661 7.05845 164.616 8.19833 164.572 9.38204C164.572 9.68893 164.616 12.6263 164.304 12.8017L163.591 13.1086C163.814 13.9854 164.438 15.8706 165.508 16.0898Z" fill="black"/>
<path d="M165.864 23.3674C164.126 22.4906 158.957 19.5532 158.199 18.8079C158.11 18.501 158.243 18.1503 158.511 18.0188C159.001 17.7119 161.63 17.4488 162.477 16.6597C163.324 15.8706 161.809 15.2129 161.809 15.2129C161.809 15.2129 159.982 16.7474 158.154 16.6597L158.199 16.3967C158.199 16.3967 159.135 15.1691 156.372 15.2129C156.372 15.2129 156.06 15.3006 156.372 16.0898L156.238 17.4488C156.238 17.4488 153.163 18.0626 152.361 17.9311C151.559 17.7996 151.559 19.334 152.004 19.8601C152.45 20.3862 152.539 20.5177 153.341 20.2985C154.143 20.0793 155.57 19.0271 155.971 19.0271C156.372 19.0271 156.283 19.5532 156.149 19.7724C156.015 19.9916 153.252 24.025 149.286 25.3403C149.286 25.3403 148.261 25.9979 149.732 26.0417C151.202 26.0856 154.545 24.858 156.327 21.5261C156.327 21.5261 156.728 24.9896 156.193 25.428C156.193 25.428 155.436 25.6472 155.926 26.9624C156.416 28.2777 157.308 28.1461 157.664 27.62C158.021 27.0939 159.313 24.9019 161.096 23.5866C161.096 23.5866 160.873 23.0605 158.734 24.1566C157.352 24.9019 157.53 22.8852 157.53 22.8852C157.53 22.8852 157.352 19.7286 157.709 19.5971C158.065 19.4655 160.917 22.666 161.809 23.1921C162.7 23.7182 164.616 26.8747 166.978 25.9102C169.34 24.9457 168.493 24.0689 168.493 24.0689C168.493 24.0689 167.602 24.2443 165.864 23.3674Z" fill="black"/>
<path d="M162.254 20.9123C162.254 20.9123 163.636 19.5094 164.527 19.1586C165.418 18.8079 165.82 17.0543 164.126 17.0543C161.942 17.0543 162.254 20.9123 162.254 20.9123Z" fill="black"/>
<path d="M204.324 23.3236C202.452 22.666 199.823 20.9123 199.823 20.9123C199.823 20.9123 200.848 19.9478 200.982 14.9937C200.982 14.9937 202.898 14.5553 202.987 13.1524C203.076 11.7495 201.249 12.2317 201.249 12.2317C201.249 12.2317 200.67 13.81 198.129 13.7662C198.932 12.6263 199.288 11.2234 199.11 9.82047C198.798 7.49688 197.639 8.41754 197.327 8.94364C197.015 9.46974 195.411 14.9937 194.297 16.4405C193.717 15.8267 192.871 15.5637 192.38 15.7829L191.578 16.1336C191.578 16.1336 190.286 16.2651 188.771 16.572V15.6952C190.018 15.3445 191.667 13.8977 192.38 13.1086C193.183 12.1879 192.826 10.2589 191.712 10.2589C190.598 10.2589 191.133 11.1357 190.687 12.3633C190.241 13.5908 188.771 14.3361 188.771 14.3361C188.771 14.3361 189.038 10.4781 189.038 9.11901C189.038 7.75992 187.567 7.54072 186.988 7.84761C186.409 8.1545 186.988 14.7745 186.988 14.7745C186.23 14.0731 185.384 13.5031 184.403 13.1963C185.205 9.6451 185.517 6.62005 185.517 6.62005C185.517 6.62005 185.963 5.87475 191.757 6.22548C197.907 6.57621 198.486 5.74322 198.709 5.17329C198.932 4.60335 198.575 3.0689 196.035 3.72652C193.495 4.38414 186.097 4.38414 186.097 4.38414C184.849 4.38414 183.735 6.05011 183.2 7.05846C182.665 8.06681 183.2 11.5741 181.952 16.6597C181.15 19.8601 178.922 23.9812 178.922 23.9812C180.571 23.4551 181.863 21.3507 182.844 18.8518C183.066 19.1587 183.334 19.4217 183.601 19.6409C184.359 20.2109 183.155 26.4363 184.359 26.5679C185.562 26.6994 185.919 25.0334 185.785 24.0251C185.651 23.0167 184.76 19.7725 185.428 19.0271C186.097 18.2818 191.355 17.405 192.47 17.8873C193.584 18.3695 192.113 24.0251 192.113 24.0251H190.91C190.91 24.0251 190.33 26.4363 191.935 26.5679C192.603 26.6117 193.183 25.5157 193.673 24.0689C194.832 24.1566 197.193 24.0689 198.53 22.3153C198.53 22.3153 202.541 27.1816 204.458 25.9102C206.374 24.6388 206.196 23.9812 204.324 23.3236ZM184.76 17.9311C184.27 17.7119 183.735 17.6242 183.2 17.7557C183.557 16.7036 183.868 15.6075 184.136 14.5115C184.983 14.7307 186.097 15.213 187.033 15.5198V17.0981C186.275 17.2735 185.473 17.5804 184.76 17.9311ZM193.807 23.499C194.252 21.8768 194.609 20.2109 194.876 18.5449C195.188 18.5011 195.5 18.3695 195.812 18.238C196.035 19.2902 196.614 20.2109 197.461 20.9123C196.748 22.3591 195.366 23.3236 193.807 23.499ZM198.62 19.9917C197.773 20.4301 197.194 18.9833 196.703 17.7557C196.213 16.5282 197.283 16.6597 197.907 16.1336C197.907 16.1336 199.377 15.6075 199.333 16.4844C199.288 17.3612 199.422 19.5094 198.62 19.9917Z" fill="black"/>
<path d="M188.414 20.0355C188.414 20.0355 186.632 20.167 186.632 20.9123C186.632 21.6576 186.364 23.9374 188.414 24.2881C190.464 24.6388 190.598 22.929 190.821 21.3946C191.088 19.6409 191.043 19.1586 188.414 20.0355ZM188.682 23.2797C187.478 23.1921 187.478 21.1754 187.478 21.1754C187.478 21.1754 189.484 20.1232 189.974 20.9561C190.464 21.7891 189.885 23.3674 188.682 23.2797Z" fill="black"/>
<path d="M50.3956 38.142C50.4402 38.7119 50.2174 39.238 49.7717 39.6326C49.2815 40.0271 48.7021 40.2463 48.0782 40.2025C47.4097 40.2463 46.7413 39.9394 46.2956 39.4572C45.85 38.9311 45.5826 38.2296 45.6271 37.572V36.476C45.5826 35.7745 45.85 35.1169 46.2956 34.5908C46.7413 34.1085 47.3652 33.8017 48.0337 33.8455C48.6576 33.8017 49.2815 34.0209 49.7717 34.4154C50.2174 34.81 50.4402 35.3361 50.3956 35.906V35.9499H49.5489C49.5489 35.5553 49.4152 35.2046 49.1478 34.8977C48.8358 34.6346 48.4347 34.5031 48.0337 34.5031C47.588 34.5031 47.1424 34.7223 46.875 35.0731C46.563 35.4676 46.4293 35.9937 46.4293 36.476V37.6159C46.4293 38.142 46.563 38.6242 46.875 39.0626C47.1424 39.4133 47.5434 39.6326 48.0337 39.6326C48.4347 39.6764 48.8358 39.501 49.1478 39.238C49.4152 38.9749 49.5489 38.5804 49.5489 38.1858L50.3956 38.142Z" fill="black"/>
<path d="M53.7826 40.2025C53.2033 40.2463 52.5794 39.9833 52.1783 39.5448C51.7772 39.0626 51.5989 38.4927 51.5989 37.8789V37.7035C51.5989 37.0897 51.7772 36.5198 52.1783 36.0375C52.5348 35.5991 53.0696 35.3799 53.6044 35.3799C54.1392 35.3361 54.6739 35.5553 55.0305 35.9499C55.387 36.3883 55.5652 36.9582 55.5207 37.4843V37.9227H52.4902C52.4902 38.3173 52.5794 38.7119 52.8022 39.0626C53.025 39.3695 53.3815 39.5448 53.7826 39.501C54.05 39.501 54.3174 39.4572 54.5402 39.3695C54.7631 39.2818 54.9413 39.1941 55.1196 39.0188L55.4761 39.5887C55.2979 39.7641 55.075 39.8956 54.8076 39.9833C54.4957 40.1586 54.1392 40.2025 53.7826 40.2025ZM53.6489 36.0814C53.337 36.0814 53.0696 36.1691 52.8913 36.4321C52.6685 36.6952 52.5794 37.0021 52.5348 37.3089H54.6739V37.2213C54.6739 36.9144 54.5848 36.6075 54.4065 36.3883C54.2283 36.1252 53.9609 36.0375 53.6489 36.0814Z" fill="black"/>
<path d="M57.7043 35.4676L57.7935 36.1691C57.9272 35.9499 58.15 35.7307 58.3728 35.5992C58.6402 35.4676 58.9076 35.38 59.175 35.38C59.6206 35.3361 60.0663 35.5115 60.3337 35.8184C60.6456 36.2129 60.7793 36.6952 60.7348 37.1775V40.1148H59.888V37.1775C59.9326 36.8706 59.8435 36.5637 59.6206 36.3006C59.3978 36.1253 59.1304 36.0376 58.863 36.0376C58.6402 36.0376 58.4174 36.0814 58.1945 36.2129C58.0163 36.3006 57.838 36.476 57.7489 36.6514V40.1148H56.9022V35.4676H57.7043Z" fill="black"/>
<path d="M63.6761 34.3716V35.5115H64.5674V36.1253H63.6761V38.9311C63.6761 39.1065 63.7207 39.238 63.8098 39.3695C63.8989 39.4572 64.0326 39.501 64.1663 39.501C64.2109 39.501 64.2555 39.501 64.3446 39.4572L64.5229 39.4134L64.6565 39.9833C64.5674 40.0271 64.4783 40.071 64.3892 40.1148C64.2555 40.1587 64.1663 40.1587 64.0326 40.1587C63.7207 40.1587 63.4087 40.071 63.1859 39.8518C62.9631 39.5887 62.8294 39.238 62.8739 38.8873V36.0814H62.1163V35.4676H62.8739V34.3278H63.6761V34.3716Z" fill="black"/>
<path d="M68.1772 36.2129L67.7315 36.1691C67.5087 36.1691 67.3304 36.2129 67.1522 36.3445C66.9739 36.4322 66.8848 36.6075 66.7957 36.7829V40.1148H65.9489V35.4676H66.7065L66.7957 36.1253C66.9293 35.9061 67.063 35.7307 67.2859 35.5553C67.4641 35.4238 67.7315 35.3361 67.9543 35.3361C67.9989 35.3361 68.088 35.3361 68.1326 35.3361C68.1772 35.3361 68.2217 35.3361 68.2663 35.38L68.1772 36.2129Z" fill="black"/>
<path d="M72.4554 40.1148C72.4109 39.9833 72.4109 39.8518 72.4109 39.7641C72.4109 39.6764 72.3663 39.5449 72.3663 39.4572C72.188 39.6764 72.0098 39.8956 71.7424 40.0272C71.475 40.1587 71.2076 40.2464 70.8956 40.2464C70.4946 40.2902 70.0935 40.1587 69.7815 39.8956C69.5141 39.6326 69.3804 39.238 69.3804 38.8873C69.3804 38.4489 69.5587 38.0543 69.9152 37.8351C70.3609 37.572 70.8956 37.4405 71.3859 37.4844H72.3217V37.0459C72.3217 36.8267 72.2326 36.5637 72.0543 36.3883C71.8761 36.213 71.6087 36.1253 71.3413 36.1691C71.1185 36.1691 70.8511 36.213 70.6728 36.3883C70.4946 36.5198 70.4054 36.6952 70.4054 36.8706H69.6033V36.8267C69.6033 36.476 69.7815 36.1253 70.0935 35.9061C70.45 35.5992 70.9402 35.4677 71.4304 35.4677C71.8761 35.4677 72.3663 35.5992 72.7228 35.8622C73.0793 36.1691 73.2576 36.5637 73.213 37.0021V39.238C73.213 39.4134 73.213 39.5449 73.2576 39.7203C73.2576 39.8518 73.3022 40.0271 73.3467 40.1587L72.4554 40.1148ZM71.0293 39.5011C71.3413 39.5011 71.6087 39.4134 71.8761 39.2818C72.0989 39.1503 72.2772 38.975 72.3663 38.7558V38.0104H71.3859C71.0739 38.0104 70.8065 38.0981 70.5391 38.2735C70.3609 38.405 70.2272 38.6242 70.2272 38.8873C70.2272 39.0626 70.2717 39.238 70.4054 39.3695C70.5837 39.4572 70.8065 39.5449 71.0293 39.5011Z" fill="black"/>
<path d="M75.8424 40.1148H74.9957V33.4071H75.8424V40.1148Z" fill="black"/>
<path d="M83.8642 37.2213H81.2348V39.4572H84.3098V40.1148H80.3881V33.8893H84.2652V34.547H81.2348V36.5637H83.8642V37.2213Z" fill="black"/>
<path d="M86.4043 35.4676L86.4489 36.1691C86.5826 35.9499 86.8054 35.7307 87.0283 35.5992C87.2511 35.4676 87.563 35.38 87.8304 35.38C88.2761 35.3361 88.7217 35.5115 89.0337 35.8184C89.3457 36.2129 89.4793 36.6952 89.4348 37.1775V40.1148H88.588V37.1775C88.6326 36.8706 88.5435 36.5637 88.3207 36.3006C88.0978 36.1253 87.8304 36.0376 87.563 36.0376C87.3402 36.0376 87.0728 36.0814 86.8946 36.2129C86.7163 36.3006 86.538 36.476 86.4489 36.6514V40.1148H85.6022V35.4676H86.4043Z" fill="black"/>
<path d="M91.0391 37.8789C90.9946 37.2213 91.1728 36.6075 91.5294 36.0814C91.8413 35.643 92.3315 35.3799 92.9109 35.3799C93.1783 35.3799 93.4457 35.4238 93.7131 35.5553C93.9359 35.6868 94.1587 35.8622 94.2924 36.0814L94.3815 35.4676H95.05V40.1586C95.0946 40.6847 94.8717 41.167 94.5152 41.5177C94.0696 41.8685 93.5348 42.0438 93 42C92.7326 42 92.5098 41.9561 92.287 41.9123C92.0641 41.8685 91.7967 41.7808 91.5739 41.6493L91.7076 40.9916C91.8859 41.0793 92.1087 41.167 92.3315 41.2108C92.5544 41.2547 92.7772 41.2985 93.0446 41.2985C93.3565 41.3424 93.713 41.2108 93.9804 41.0355C94.2033 40.7724 94.2924 40.4655 94.2478 40.1586V39.6326C94.1141 39.8079 93.8913 39.9833 93.6685 40.071C93.4457 40.1587 93.1783 40.2463 92.9109 40.2025C92.3761 40.2025 91.8859 39.9833 91.5739 39.5887C91.2174 39.1065 91.0391 38.5365 91.0837 37.9666L91.0391 37.8789ZM91.8859 37.9666C91.8859 38.3612 91.975 38.7557 92.1978 39.1065C92.3761 39.4133 92.7326 39.5449 93.0891 39.5449C93.312 39.5449 93.5348 39.501 93.7576 39.3695C93.9359 39.238 94.1141 39.0626 94.2033 38.8873V36.739C94.1141 36.5637 93.9359 36.3883 93.7576 36.2568C93.5794 36.1252 93.3565 36.0814 93.1337 36.0814C92.7772 36.0814 92.4207 36.2568 92.2424 36.5637C92.0196 36.9582 91.9304 37.4405 91.9304 37.8789L91.8859 37.9666Z" fill="black"/>
<path d="M98.9272 36.2129L98.4815 36.1691C98.2587 36.1691 98.0804 36.2129 97.9022 36.3445C97.7239 36.476 97.6348 36.6075 97.5457 36.7829V40.1148H96.6989V35.4676H97.4565L97.5457 36.1253C97.6793 35.9061 97.813 35.7307 98.0359 35.5553C98.2141 35.4238 98.4815 35.3361 98.7043 35.3361C98.7489 35.3361 98.838 35.3361 98.8826 35.3361C98.9272 35.3361 98.9717 35.3361 99.0163 35.38L98.9272 36.2129Z" fill="black"/>
<path d="M103.205 40.1148C103.161 39.9833 103.161 39.8518 103.161 39.7641C103.161 39.6764 103.116 39.5449 103.116 39.4572C102.938 39.6764 102.715 39.8956 102.492 40.0272C102.225 40.1587 101.958 40.2464 101.646 40.2464C101.245 40.2902 100.843 40.1587 100.532 39.8956C100.264 39.6326 100.13 39.238 100.13 38.8873C100.13 38.4489 100.309 38.0543 100.665 37.8351C101.111 37.572 101.646 37.4405 102.136 37.4844H103.072V37.0459C103.072 36.7829 102.983 36.5637 102.804 36.3883C102.626 36.213 102.359 36.1253 102.091 36.1691C101.868 36.1691 101.601 36.213 101.423 36.3883C101.245 36.5198 101.155 36.6952 101.155 36.8706H100.353V36.8267C100.353 36.476 100.532 36.1253 100.843 35.9061C101.2 35.5992 101.69 35.4677 102.18 35.4677C102.626 35.4677 103.116 35.5992 103.473 35.8622C103.829 36.1691 104.008 36.5637 103.963 37.0021V39.238C103.963 39.4134 103.963 39.5887 103.963 39.7203C103.963 39.8518 104.008 40.0271 104.052 40.1587L103.205 40.1148ZM101.779 39.5011C102.091 39.5011 102.359 39.4134 102.626 39.2818C102.849 39.1503 103.027 38.975 103.116 38.7558V38.0104H102.136C101.824 38.0104 101.557 38.0981 101.289 38.2735C101.111 38.405 100.977 38.6242 100.977 38.8873C100.977 39.0626 101.022 39.238 101.155 39.3695C101.334 39.4572 101.557 39.5449 101.779 39.5011Z" fill="black"/>
<path d="M107.172 38.7558L107.261 39.1065H107.305L107.395 38.7558L108.464 35.4677H109.355L107.617 40.1148H106.949L105.211 35.4677H106.102L107.172 38.7558Z" fill="black"/>
<path d="M111.45 34.2839H110.603V33.4071H111.45V34.2839ZM111.45 40.1148H110.603V35.4676H111.45V40.1148Z" fill="black"/>
<path d="M113.99 35.4676L114.035 36.1691C114.168 35.9499 114.391 35.7307 114.614 35.5992C114.882 35.4676 115.149 35.38 115.416 35.38C115.862 35.3361 116.308 35.5115 116.575 35.8184C116.887 36.2129 117.021 36.6952 116.976 37.1775V40.1148H116.129V37.1775C116.174 36.8706 116.085 36.5637 115.907 36.3006C115.684 36.1253 115.416 36.0376 115.149 36.0376C114.926 36.0376 114.703 36.0814 114.48 36.2129C114.302 36.3006 114.124 36.476 114.035 36.6514V40.1148H113.188V35.4676H113.99Z" fill="black"/>
<path d="M118.625 37.8789C118.58 37.2213 118.759 36.6075 119.115 36.0814C119.427 35.643 119.917 35.3799 120.452 35.3799C120.72 35.3799 120.987 35.4238 121.254 35.5553C121.477 35.6868 121.7 35.8622 121.834 36.0814L121.923 35.4676H122.591V40.1586C122.636 40.6847 122.458 41.167 122.057 41.5177C121.611 41.8685 121.076 42.0438 120.541 42C120.274 42 120.051 41.9561 119.828 41.9123C119.605 41.8685 119.338 41.7808 119.115 41.6493L119.249 40.9916C119.427 41.0793 119.65 41.167 119.828 41.2108C120.051 41.2547 120.274 41.2985 120.541 41.2985C120.853 41.3424 121.21 41.2108 121.433 41.0355C121.655 40.7724 121.745 40.4655 121.7 40.1586V39.6326C121.566 39.8079 121.344 39.9833 121.165 40.071C120.942 40.1587 120.675 40.2463 120.408 40.2025C119.873 40.2025 119.383 39.9833 119.071 39.5887C118.714 39.1065 118.536 38.5365 118.58 37.9666L118.625 37.8789ZM119.472 37.9666C119.427 38.3612 119.561 38.7557 119.739 39.1065C119.917 39.4133 120.274 39.5449 120.63 39.5449C120.853 39.5449 121.076 39.501 121.299 39.3695C121.477 39.238 121.655 39.0626 121.745 38.8873V36.739C121.655 36.5637 121.477 36.3883 121.299 36.2568C121.121 36.1252 120.898 36.0814 120.675 36.0814C120.319 36.0814 119.962 36.2568 119.784 36.5637C119.561 36.9582 119.472 37.4405 119.472 37.8789V37.9666Z" fill="black"/>
<path d="M129.855 40.1148C129.811 39.9833 129.811 39.8518 129.766 39.7641C129.722 39.6764 129.766 39.5449 129.722 39.4572C129.544 39.6764 129.321 39.8956 129.098 40.0272C128.83 40.1587 128.563 40.2464 128.251 40.2464C127.85 40.2902 127.449 40.1587 127.137 39.8956C126.87 39.6326 126.736 39.238 126.736 38.8873C126.736 38.4489 126.914 38.0543 127.271 37.8351C127.716 37.572 128.251 37.4405 128.741 37.4844H129.677V37.0459C129.677 36.7829 129.588 36.5637 129.41 36.3883C129.232 36.213 128.964 36.1253 128.697 36.1691C128.474 36.1691 128.207 36.213 128.028 36.3883C127.85 36.5198 127.761 36.6952 127.761 36.8706H126.959V36.8267C126.959 36.476 127.137 36.1253 127.449 35.9061C127.805 35.5992 128.296 35.4677 128.786 35.4677C129.232 35.4238 129.722 35.5992 130.078 35.8622C130.435 36.1691 130.613 36.5637 130.568 37.0021V39.238C130.568 39.4134 130.569 39.5449 130.613 39.7203C130.613 39.8518 130.658 40.0271 130.702 40.1587L129.855 40.1148ZM128.429 39.5011C128.741 39.5011 129.009 39.4134 129.276 39.2818C129.499 39.1503 129.677 38.975 129.766 38.7558V38.0104H128.786C128.474 38.0104 128.207 38.0981 127.939 38.2735C127.761 38.405 127.627 38.6242 127.627 38.8873C127.627 39.0626 127.672 39.238 127.805 39.3695C128.028 39.4572 128.207 39.5449 128.429 39.5011Z" fill="black"/>
<path d="M133.109 35.4676L133.153 36.1691C133.287 35.9499 133.51 35.7307 133.733 35.5992C133.955 35.4676 134.267 35.38 134.535 35.38C134.98 35.3361 135.426 35.5115 135.738 35.8184C136.05 36.2129 136.184 36.6952 136.139 37.1775V40.1148H135.337V37.1775C135.382 36.8706 135.292 36.5637 135.114 36.3006C134.891 36.1253 134.624 36.0376 134.356 36.0376C134.134 36.0376 133.866 36.0814 133.688 36.2129C133.51 36.3006 133.331 36.476 133.242 36.6514V40.1148H132.396V35.4676H133.109Z" fill="black"/>
<path d="M137.654 37.8789C137.61 37.2213 137.788 36.6075 138.145 36.0814C138.456 35.643 138.947 35.38 139.526 35.38C139.793 35.38 140.016 35.4238 140.239 35.5115C140.462 35.5992 140.64 35.7745 140.774 35.9499V33.4071H141.621V40.1148H140.952L140.818 39.5449C140.685 39.7641 140.462 39.9395 140.239 40.071C139.972 40.2025 139.704 40.2464 139.437 40.2464C138.902 40.2464 138.412 40.0271 138.1 39.6326C137.743 39.1503 137.565 38.5804 137.61 38.0104L137.654 37.8789ZM138.501 37.9666C138.501 38.3612 138.59 38.7557 138.768 39.1065C138.947 39.4134 139.303 39.5449 139.66 39.5449C139.883 39.5449 140.105 39.5011 140.328 39.3695C140.506 39.238 140.685 39.0626 140.774 38.8873V36.6952C140.685 36.5198 140.506 36.3445 140.328 36.2568C140.15 36.1253 139.927 36.0814 139.704 36.0814C139.348 36.0814 138.991 36.2568 138.813 36.5637C138.59 36.9583 138.501 37.4405 138.501 37.8789V37.9666Z" fill="black"/>
<path d="M147.013 37.6158V40.1148H146.166V33.8893H148.617C149.197 33.8455 149.776 34.0209 150.177 34.4154C150.935 35.1607 150.935 36.3883 150.177 37.1336C149.731 37.4843 149.152 37.7035 148.617 37.6597H147.013V37.6158ZM147.013 36.9582H148.573C148.929 37.0021 149.286 36.8705 149.553 36.6075C149.999 36.0814 149.999 35.3799 149.553 34.8538C149.286 34.5908 148.929 34.5031 148.573 34.5031H147.013V36.9582Z" fill="black"/>
<path d="M154.411 36.2129L153.965 36.1691C153.742 36.1691 153.564 36.2129 153.386 36.3445C153.208 36.476 153.118 36.6075 153.029 36.7829V40.1148H152.183V35.4676H152.94L153.029 36.1253C153.163 35.9061 153.297 35.7307 153.52 35.5553C153.698 35.4238 153.965 35.3361 154.188 35.3361C154.233 35.3361 154.322 35.3361 154.366 35.3361C154.411 35.3361 154.455 35.3361 154.5 35.38L154.411 36.2129Z" fill="black"/>
<path d="M156.684 34.2839H155.837V33.4071H156.684V34.2839ZM156.684 40.1148H155.837V35.4676H156.684V40.1148Z" fill="black"/>
<path d="M159.224 35.4676L159.269 36.1691C159.402 35.9499 159.625 35.7307 159.848 35.5992C160.115 35.4676 160.383 35.38 160.65 35.38C161.096 35.3361 161.541 35.5115 161.809 35.8184C162.121 36.2129 162.254 36.6952 162.21 37.1775V40.1148H161.363V37.1775C161.408 36.8706 161.318 36.5637 161.14 36.3006C160.917 36.1253 160.65 36.0376 160.383 36.0376C160.16 36.0376 159.892 36.0814 159.714 36.2129C159.536 36.3006 159.358 36.476 159.269 36.6514V40.1148H158.422V35.4676H159.224Z" fill="black"/>
<path d="M165.196 34.3716V35.5115H166.087V36.1253H165.196V38.9311C165.196 39.1065 165.24 39.238 165.329 39.3695C165.418 39.4572 165.552 39.501 165.686 39.501C165.73 39.501 165.775 39.501 165.864 39.4572L165.998 39.4134L166.132 39.9833C166.042 40.0271 165.953 40.071 165.864 40.1148C165.73 40.1587 165.641 40.1587 165.508 40.1587C165.196 40.1587 164.884 40.071 164.661 39.8518C164.438 39.5887 164.304 39.238 164.349 38.8873V36.0814H163.591V35.4676H164.349V34.3278H165.196V34.3716Z" fill="black"/>
<path d="M168.404 34.2839H167.558V33.4071H168.404V34.2839ZM168.404 40.1148H167.558V35.4676H168.404V40.1148Z" fill="black"/>
<path d="M170.945 35.4676L170.989 36.1691C171.123 35.9499 171.346 35.7307 171.568 35.5992C171.836 35.4676 172.103 35.38 172.371 35.38C172.816 35.3361 173.262 35.5115 173.529 35.8184C173.841 36.2129 173.975 36.6952 173.93 37.1775V40.1148H173.084V37.1775C173.128 36.8706 173.039 36.5637 172.861 36.3006C172.638 36.1253 172.371 36.0376 172.103 36.0376C171.88 36.0376 171.658 36.0814 171.435 36.2129C171.257 36.3006 171.078 36.476 170.989 36.6514V40.1148H170.142V35.4676H170.945Z" fill="black"/>
<path d="M175.535 37.8789C175.49 37.2213 175.668 36.6075 176.025 36.0814C176.337 35.643 176.827 35.3799 177.362 35.3799C177.629 35.3799 177.897 35.4238 178.164 35.5553C178.387 35.6868 178.61 35.8622 178.743 36.0814L178.833 35.4676H179.501V40.1586C179.546 40.6847 179.367 41.167 179.011 41.5177C178.565 41.8685 178.03 42.0438 177.496 42C177.228 42 177.005 41.9561 176.783 41.9123C176.56 41.8685 176.292 41.7808 176.07 41.6493L176.203 40.9916C176.382 41.0793 176.604 41.167 176.783 41.2108C177.005 41.2547 177.228 41.2985 177.496 41.2985C177.808 41.3424 178.164 41.2108 178.387 41.0355C178.61 40.7724 178.699 40.4655 178.654 40.1586V39.6326C178.521 39.8079 178.298 39.9833 178.12 40.071C177.897 40.1587 177.629 40.2463 177.362 40.2025C176.827 40.2025 176.337 39.9833 176.025 39.5887C175.668 39.1065 175.49 38.5365 175.535 37.9666V37.8789ZM176.382 37.9666C176.382 38.3612 176.471 38.7557 176.649 39.1065C176.827 39.4133 177.184 39.5449 177.54 39.5449C177.763 39.5449 177.986 39.501 178.209 39.3695C178.387 39.238 178.565 39.0626 178.654 38.8873V36.739C178.565 36.5637 178.387 36.3883 178.209 36.2568C178.03 36.1252 177.808 36.0814 177.585 36.0814C177.228 36.0814 176.872 36.2568 176.693 36.5637C176.471 36.9582 176.382 37.4405 176.382 37.8789V37.9666Z" fill="black"/>
<path d="M184.849 37.6158V40.1148H184.002V33.8893H186.453C187.033 33.8455 187.612 34.0209 188.058 34.4154C188.815 35.1607 188.815 36.3883 188.058 37.1336C187.612 37.4843 187.033 37.6597 186.453 37.6597H184.849V37.6158ZM184.849 36.9582H186.409C187.033 37.0459 187.612 36.5636 187.701 35.9499C187.701 35.8622 187.701 35.8183 187.701 35.7307C187.701 35.4238 187.612 35.073 187.389 34.8538C187.122 34.5908 186.765 34.5031 186.409 34.5031H184.849V36.9582Z" fill="black"/>
<path d="M190.954 40.1148H190.108V33.4071H190.954V40.1148Z" fill="black"/>
<path d="M195.634 40.1148C195.589 39.9833 195.589 39.8517 195.589 39.7641C195.589 39.6764 195.545 39.5449 195.545 39.4572C195.366 39.6764 195.188 39.8956 194.921 40.0271C194.653 40.1586 194.386 40.2463 194.074 40.2463C193.673 40.2902 193.272 40.1586 192.96 39.8956C192.692 39.6325 192.559 39.238 192.559 38.8872C192.559 38.4488 192.737 38.0542 193.094 37.835C193.539 37.572 194.074 37.4405 194.564 37.4843H195.5V37.0459C195.5 36.7828 195.411 36.5636 195.233 36.3883C195.054 36.2129 194.787 36.1252 194.52 36.1691C194.297 36.1691 194.029 36.2129 193.851 36.3883C193.673 36.5198 193.584 36.6952 193.584 36.8705H192.826V36.8267C192.826 36.476 193.004 36.0814 193.272 35.8622C193.628 35.5553 194.119 35.4238 194.609 35.4238C195.054 35.3799 195.545 35.5553 195.901 35.8183C196.258 36.1252 196.436 36.5198 196.391 36.9582V39.1941C196.391 39.3695 196.391 39.501 196.436 39.6764C196.436 39.8079 196.48 39.9833 196.525 40.1148H195.634ZM194.208 39.501C194.52 39.501 194.787 39.4133 195.054 39.2818C195.277 39.1503 195.455 38.9749 195.545 38.7557V38.0104H194.564C194.252 38.0104 193.985 38.0981 193.717 38.2735C193.539 38.405 193.405 38.6242 193.405 38.8872C193.405 39.0626 193.45 39.238 193.584 39.3695C193.762 39.4572 193.985 39.5449 194.208 39.501Z" fill="black"/>
<path d="M198.842 35.4676L198.887 36.1691C199.021 35.9499 199.243 35.7307 199.466 35.5992C199.734 35.4676 200.001 35.38 200.268 35.38C200.714 35.3361 201.16 35.5115 201.427 35.8184C201.739 36.2129 201.873 36.6952 201.828 37.1775V40.1148H200.982V37.1775C201.026 36.8706 200.937 36.5637 200.759 36.3006C200.536 36.1253 200.268 36.0376 200.001 36.0376C199.778 36.0376 199.511 36.0814 199.333 36.2129C199.154 36.3006 198.976 36.476 198.887 36.6514V40.1148H198.04V35.4676H198.842Z" fill="black"/>
<path d="M204.814 34.3716V35.5115H205.705V36.1253H204.814V38.9311C204.814 39.1065 204.859 39.238 204.948 39.3695C205.037 39.4572 205.171 39.501 205.304 39.501C205.349 39.501 205.393 39.501 205.483 39.4572L205.661 39.4134L205.795 39.9833C205.705 40.0271 205.616 40.071 205.527 40.1148C205.393 40.1587 205.304 40.1587 205.171 40.1587C204.859 40.1587 204.547 40.071 204.324 39.8518C204.101 39.5887 203.967 39.238 204.012 38.8873V36.0814H203.254V35.4676H204.012V34.3278H204.814V34.3716Z" fill="black"/>
</g>
<defs>
<clipPath id="clip0_51_178">
<rect width="205" height="42" fill="white" transform="translate(0.75)"/>
</clipPath>
</defs>
</svg>
